<svg width="66" height="66" viewBox="0 0 66 66" fill="none" xmlns="http://www.w3.org/2000/svg">
<path d="M28.1463 27.1013C27.4038 26.7163 26.7988 26.1251 26.4275 25.3826L26.3313 25.1901C25.96 24.4613 24.9288 24.4613 24.5575 25.1901L24.4613 25.3826C24.0763 26.1251 23.485 26.7301 22.7425 27.1013L22.55 27.1976C21.8213 27.5688 21.8213 28.6001 22.55 28.9713L22.7425 29.0676C23.485 29.4526 24.09 30.0438 24.4613 30.7863L24.5575 30.9788C24.9288 31.7076 25.96 31.7076 26.3313 30.9788L26.4275 30.7863C26.8125 30.0438 27.4038 29.4388 28.1463 29.0676L28.3388 28.9713C29.0675 28.6001 29.0675 27.5688 28.3388 27.1976L28.1463 27.1013Z" fill="white"/>
<path d="M32.945 31.8176L32.615 31.9826C31.3087 32.6426 31.3087 34.5126 32.615 35.1863L32.945 35.3513C34.2787 36.0388 35.365 37.1251 36.0525 38.4588L36.2175 38.7888C36.8775 40.0951 38.7475 40.0951 39.4213 38.7888L39.5863 38.4588C40.2738 37.1251 41.36 36.0388 42.6937 35.3513L43.0238 35.1863C44.33 34.5263 44.33 32.6563 43.0238 31.9826L42.6937 31.8176C41.36 31.1301 40.2738 30.0438 39.5863 28.7101L39.4213 28.3801C38.7613 27.0738 36.8913 27.0738 36.2175 28.3801L36.0525 28.7101C35.365 30.0438 34.2787 31.1301 32.945 31.8176Z" fill="white"/>
<path d="M54.4225 13.7226L53.9825 13.5026C52.6075 12.8013 51.5075 11.7013 50.8063 10.3263L50.5863 9.88631C49.83 8.40131 48.3175 7.48006 46.6538 7.48006C44.99 7.48006 43.4775 8.40131 42.7075 9.88631L42.4875 10.3263C41.7862 11.7013 40.6863 12.8013 39.3113 13.5026L38.8713 13.7226C37.3863 14.4788 36.465 15.9913 36.465 17.6688C36.465 19.3463 37.3863 20.8451 38.8713 21.6151L39.3113 21.8351C40.6863 22.5363 41.7862 23.6363 42.4875 25.0113L42.7075 25.4513C43.4637 26.9363 44.9763 27.8576 46.6538 27.8576C48.3313 27.8576 49.83 26.9363 50.6 25.4513L50.82 25.0113C51.5212 23.6363 52.6213 22.5363 53.9963 21.8351L54.4363 21.6151C55.9213 20.8588 56.8425 19.3463 56.8425 17.6826C56.8425 16.0188 55.9213 14.5063 54.4363 13.7363L54.4225 13.7226ZM52.5525 17.9301L52.1125 18.1501C49.9538 19.2501 48.235 20.9688 47.135 23.1276L46.915 23.5676C46.915 23.5676 46.8325 23.7326 46.6538 23.7326C46.475 23.7326 46.4063 23.6088 46.3925 23.5676L46.1725 23.1276C45.0725 20.9688 43.3537 19.2501 41.195 18.1501L40.755 17.9301C40.755 17.9301 40.59 17.8476 40.59 17.6688C40.59 17.4901 40.7137 17.4213 40.755 17.4076L41.195 17.1876C43.3537 16.0876 45.0725 14.3688 46.1725 12.2101L46.3925 11.7701C46.3925 11.7701 46.475 11.6051 46.6538 11.6051C46.8325 11.6051 46.9012 11.7151 46.915 11.7701L47.135 12.2101C48.235 14.3688 49.9538 16.0876 52.1125 17.1876L52.5525 17.4076C52.5525 17.4076 52.7175 17.4901 52.7175 17.6688C52.7175 17.8476 52.5938 17.9163 52.5525 17.9301Z" fill="white"/>
<path d="M52.9375 26.0288C51.7963 26.0288 50.875 26.9501 50.875 28.0913C50.875 37.9501 42.8588 45.9663 33 45.9663C23.1412 45.9663 15.125 37.9501 15.125 28.0913C15.125 18.2326 23.1412 10.2163 33 10.2163C34.6775 10.2163 36.3413 10.4501 37.9363 10.9038C39.0363 11.2201 40.1775 10.5876 40.48 9.48756C40.7963 8.38756 40.1637 7.24631 39.0637 6.94381C37.0975 6.38006 35.0625 6.09131 33 6.09131C20.8725 6.09131 11 15.9638 11 28.0913C11 33.8663 13.255 39.1051 16.9125 43.0376L14.5475 50.1188C14.4787 50.3251 14.4375 50.5451 14.4375 50.7651C14.4375 54.4226 21.0513 59.7026 33 59.7026C44.9487 59.7026 51.5625 54.4226 51.5625 50.7651C51.5625 50.5451 51.5212 50.3251 51.4525 50.1188L49.0875 43.0376C52.745 39.1051 55 33.8663 55 28.0913C55 26.9501 54.0787 26.0288 52.9375 26.0288ZM18.6587 50.8338L20.2675 45.9938C21.8762 47.1351 23.6362 48.0701 25.52 48.7438L23.9663 54.1888C20.8175 53.0888 19.1262 51.5901 18.6587 50.8201V50.8338Z" fill="white"/>
</svg>
