<svg width="40" height="40" viewBox="0 0 40 40" fill="none" xmlns="http://www.w3.org/2000/svg">
<path d="M17.0584 16.425C16.6084 16.1916 16.2417 15.8333 16.0167 15.3833L15.9584 15.2667C15.7334 14.825 15.1084 14.825 14.8834 15.2667L14.8251 15.3833C14.5917 15.8333 14.2334 16.2 13.7834 16.425L13.6667 16.4833C13.2251 16.7083 13.2251 17.3333 13.6667 17.5583L13.7834 17.6166C14.2334 17.85 14.6001 18.2083 14.8251 18.6583L14.8834 18.775C15.1084 19.2167 15.7334 19.2167 15.9584 18.775L16.0167 18.6583C16.2501 18.2083 16.6084 17.8416 17.0584 17.6166L17.1751 17.5583C17.6167 17.3333 17.6167 16.7083 17.1751 16.4833L17.0584 16.425Z" fill="white"/>
<path d="M19.9667 19.2833L19.7667 19.3833C18.9751 19.7833 18.9751 20.9166 19.7667 21.325L19.9667 21.425C20.7751 21.8416 21.4334 22.5 21.8501 23.3083L21.9501 23.5083C22.3501 24.3 23.4834 24.3 23.8917 23.5083L23.9917 23.3083C24.4084 22.5 25.0667 21.8416 25.8751 21.425L26.0751 21.325C26.8667 20.925 26.8667 19.7916 26.0751 19.3833L25.8751 19.2833C25.0667 18.8666 24.4084 18.2083 23.9917 17.4L23.8917 17.2C23.4917 16.4083 22.3584 16.4083 21.9501 17.2L21.8501 17.4C21.4334 18.2083 20.7751 18.8666 19.9667 19.2833Z" fill="white"/>
<path d="M32.9834 8.31665L32.7167 8.18332C31.8834 7.75832 31.2167 7.09165 30.7917 6.25832L30.6584 5.99165C30.2001 5.09165 29.2834 4.53332 28.2751 4.53332C27.2667 4.53332 26.3501 5.09165 25.8834 5.99165L25.7501 6.25832C25.3251 7.09165 24.6584 7.75832 23.8251 8.18332L23.5584 8.31665C22.6584 8.77498 22.1001 9.69165 22.1001 10.7083C22.1001 11.725 22.6584 12.6333 23.5584 13.1L23.8251 13.2333C24.6584 13.6583 25.3251 14.325 25.7501 15.1583L25.8834 15.425C26.3417 16.325 27.2584 16.8833 28.2751 16.8833C29.2917 16.8833 30.2001 16.325 30.6667 15.425L30.8001 15.1583C31.2251 14.325 31.8917 13.6583 32.7251 13.2333L32.9917 13.1C33.8917 12.6417 34.4501 11.725 34.4501 10.7167C34.4501 9.70832 33.8917 8.79165 32.9917 8.32498L32.9834 8.31665ZM31.8501 10.8667L31.5834 11C30.2751 11.6667 29.2334 12.7083 28.5667 14.0166L28.4334 14.2833C28.4334 14.2833 28.3834 14.3833 28.2751 14.3833C28.1667 14.3833 28.1251 14.3083 28.1168 14.2833L27.9834 14.0166C27.3168 12.7083 26.2751 11.6667 24.9667 11L24.7001 10.8667C24.7001 10.8667 24.6001 10.8167 24.6001 10.7083C24.6001 10.6 24.6751 10.5583 24.7001 10.55L24.9667 10.4166C26.2751 9.74998 27.3168 8.70832 27.9834 7.39998L28.1168 7.13332C28.1168 7.13332 28.1667 7.03332 28.2751 7.03332C28.3834 7.03332 28.4251 7.09998 28.4334 7.13332L28.5667 7.39998C29.2334 8.70832 30.2751 9.74998 31.5834 10.4166L31.8501 10.55C31.8501 10.55 31.9501 10.6 31.9501 10.7083C31.9501 10.8167 31.8751 10.8583 31.8501 10.8667Z" fill="white"/>
<path d="M32.0834 15.775C31.3917 15.775 30.8334 16.3333 30.8334 17.025C30.8334 23 25.9751 27.8583 20.0001 27.8583C14.0251 27.8583 9.16675 23 9.16675 17.025C9.16675 11.05 14.0251 6.19165 20.0001 6.19165C21.0167 6.19165 22.0251 6.33332 22.9917 6.60832C23.6584 6.79998 24.3501 6.41665 24.5334 5.74998C24.7251 5.08332 24.3417 4.39165 23.6751 4.20832C22.4834 3.86665 21.2501 3.69165 20.0001 3.69165C12.6501 3.69165 6.66675 9.67498 6.66675 17.025C6.66675 20.525 8.03341 23.7 10.2501 26.0833L8.81675 30.375C8.77508 30.5 8.75008 30.6333 8.75008 30.7666C8.75008 32.9833 12.7584 36.1833 20.0001 36.1833C27.2417 36.1833 31.2501 32.9833 31.2501 30.7666C31.2501 30.6333 31.2251 30.5 31.1834 30.375L29.7501 26.0833C31.9667 23.7 33.3334 20.525 33.3334 17.025C33.3334 16.3333 32.7751 15.775 32.0834 15.775ZM11.3084 30.8083L12.2834 27.875C13.2584 28.5667 14.3251 29.1333 15.4667 29.5417L14.5251 32.8416C12.6167 32.175 11.5917 31.2666 11.3084 30.8V30.8083Z" fill="white"/>
</svg>
