<svg width="48" height="48" viewBox="0 0 48 48" fill="none" xmlns="http://www.w3.org/2000/svg">
<path d="M20.47 19.7099C19.93 19.4299 19.49 18.9999 19.22 18.4599L19.15 18.3199C18.88 17.7899 18.13 17.7899 17.86 18.3199L17.79 18.4599C17.51 18.9999 17.08 19.4399 16.54 19.7099L16.4 19.7799C15.87 20.0499 15.87 20.7999 16.4 21.0699L16.54 21.1399C17.08 21.4199 17.52 21.8499 17.79 22.3899L17.86 22.5299C18.13 23.0599 18.88 23.0599 19.15 22.5299L19.22 22.3899C19.5 21.8499 19.93 21.4099 20.47 21.1399L20.61 21.0699C21.14 20.7999 21.14 20.0499 20.61 19.7799L20.47 19.7099Z" fill="white"/>
<path d="M23.96 23.1399L23.72 23.2599C22.77 23.7399 22.77 25.0999 23.72 25.5899L23.96 25.7099C24.93 26.2099 25.72 26.9999 26.22 27.9699L26.34 28.2099C26.82 29.1599 28.18 29.1599 28.67 28.2099L28.79 27.9699C29.29 26.9999 30.08 26.2099 31.05 25.7099L31.29 25.5899C32.24 25.1099 32.24 23.7499 31.29 23.2599L31.05 23.1399C30.08 22.6399 29.29 21.8499 28.79 20.8799L28.67 20.6399C28.19 19.6899 26.83 19.6899 26.34 20.6399L26.22 20.8799C25.72 21.8499 24.93 22.6399 23.96 23.1399Z" fill="white"/>
<path d="M39.58 9.97993L39.26 9.81993C38.26 9.30993 37.46 8.50993 36.95 7.50993L36.79 7.18993C36.24 6.10993 35.14 5.43993 33.93 5.43993C32.72 5.43993 31.62 6.10993 31.06 7.18993L30.9 7.50993C30.39 8.50993 29.59 9.30993 28.59 9.81993L28.27 9.97993C27.19 10.5299 26.52 11.6299 26.52 12.8499C26.52 14.0699 27.19 15.1599 28.27 15.7199L28.59 15.8799C29.59 16.3899 30.39 17.1899 30.9 18.1899L31.06 18.5099C31.61 19.5899 32.71 20.2599 33.93 20.2599C35.15 20.2599 36.24 19.5899 36.8 18.5099L36.96 18.1899C37.47 17.1899 38.27 16.3899 39.27 15.8799L39.59 15.7199C40.67 15.1699 41.34 14.0699 41.34 12.8599C41.34 11.6499 40.67 10.5499 39.59 9.98993L39.58 9.97993ZM38.22 13.0399L37.9 13.1999C36.33 13.9999 35.08 15.2499 34.28 16.8199L34.12 17.1399C34.12 17.1399 34.06 17.2599 33.93 17.2599C33.8 17.2599 33.75 17.1699 33.74 17.1399L33.58 16.8199C32.78 15.2499 31.53 13.9999 29.96 13.1999L29.64 13.0399C29.64 13.0399 29.52 12.9799 29.52 12.8499C29.52 12.7199 29.61 12.6699 29.64 12.6599L29.96 12.4999C31.53 11.6999 32.78 10.4499 33.58 8.87993L33.74 8.55993C33.74 8.55993 33.8 8.43993 33.93 8.43993C34.06 8.43993 34.11 8.51993 34.12 8.55993L34.28 8.87993C35.08 10.4499 36.33 11.6999 37.9 12.4999L38.22 12.6599C38.22 12.6599 38.34 12.7199 38.34 12.8499C38.34 12.9799 38.25 13.0299 38.22 13.0399Z" fill="white"/>
<path d="M38.5 18.9299C37.67 18.9299 37 19.5999 37 20.4299C37 27.5999 31.17 33.4299 24 33.4299C16.83 33.4299 11 27.5999 11 20.4299C11 13.2599 16.83 7.42993 24 7.42993C25.22 7.42993 26.43 7.59993 27.59 7.92993C28.39 8.15993 29.22 7.69993 29.44 6.89993C29.67 6.09993 29.21 5.26993 28.41 5.04993C26.98 4.63993 25.5 4.42993 24 4.42993C15.18 4.42993 8 11.6099 8 20.4299C8 24.6299 9.64 28.4399 12.3 31.2999L10.58 36.4499C10.53 36.5999 10.5 36.7599 10.5 36.9199C10.5 39.5799 15.31 43.4199 24 43.4199C32.69 43.4199 37.5 39.5799 37.5 36.9199C37.5 36.7599 37.47 36.5999 37.42 36.4499L35.7 31.2999C38.36 28.4399 40 24.6299 40 20.4299C40 19.5999 39.33 18.9299 38.5 18.9299ZM13.57 36.9699L14.74 33.4499C15.91 34.2799 17.19 34.9599 18.56 35.4499L17.43 39.4099C15.14 38.6099 13.91 37.5199 13.57 36.9599V36.9699Z" fill="white"/>
</svg>
