<svg width="35" height="35" viewBox="0 0 35 35" fill="none" xmlns="http://www.w3.org/2000/svg">
<path fill-rule="evenodd" clip-rule="evenodd" d="M23.7604 23.7604C24.3299 23.1909 25.2533 23.1909 25.8228 23.7604L31.6561 29.5937C32.2256 30.1632 32.2256 31.0866 31.6561 31.6561C31.0866 32.2256 30.1632 32.2256 29.5937 31.6561L23.7604 25.8228C23.1909 25.2533 23.1909 24.3299 23.7604 23.7604Z" fill="white"/>
<path fill-rule="evenodd" clip-rule="evenodd" d="M16.0417 2.9165C8.79301 2.9165 2.91675 8.79277 2.91675 16.0415C2.91675 23.2902 8.79301 29.1665 16.0417 29.1665C23.2905 29.1665 29.1667 23.2902 29.1667 16.0415C29.1667 8.79277 23.2905 2.9165 16.0417 2.9165ZM10.2084 16.0415C10.2084 15.2361 10.8613 14.5832 11.6667 14.5832H20.4167C21.2222 14.5832 21.8751 15.2361 21.8751 16.0415C21.8751 16.8469 21.2222 17.4998 20.4167 17.4998H11.6667C10.8613 17.4998 10.2084 16.8469 10.2084 16.0415Z" fill="white"/>
</svg>
