<svg width="38" height="38" viewBox="0 0 38 38" fill="none" xmlns="http://www.w3.org/2000/svg">
<path fill-rule="evenodd" clip-rule="evenodd" d="M15.1114 6.3335C13.0661 6.3335 11.1466 7.32128 9.95777 8.98565L4.77661 16.2393C3.59692 17.8908 3.59692 20.1095 4.77661 21.761L9.95777 29.0147C11.1466 30.679 13.0661 31.6668 15.1114 31.6668H28.5003C31.9981 31.6668 34.8336 28.8313 34.8336 25.3335V12.6668C34.8336 9.16903 31.9981 6.3335 28.5003 6.3335H15.1114ZM16.2971 13.1306C16.9154 12.5122 17.9179 12.5122 18.5363 13.1306L22.1667 16.761L25.7971 13.1306C26.4154 12.5122 27.4179 12.5122 28.0363 13.1306C28.6546 13.7489 28.6546 14.7514 28.0363 15.3697L24.4058 19.0002L28.0363 22.6306C28.6546 23.2489 28.6546 24.2514 28.0363 24.8697C27.4179 25.4881 26.4154 25.4881 25.7971 24.8697L22.1667 21.2393L18.5363 24.8697C17.9179 25.4881 16.9154 25.4881 16.2971 24.8697C15.6788 24.2514 15.6788 23.2489 16.2971 22.6306L19.9275 19.0002L16.2971 15.3697C15.6788 14.7514 15.6788 13.7489 16.2971 13.1306Z" fill="white"/>
</svg>
