<svg width="38" height="38" viewBox="0 0 38 38" fill="none" xmlns="http://www.w3.org/2000/svg">
<path fill-rule="evenodd" clip-rule="evenodd" d="M18.9999 3.95817C18.9999 3.52095 18.6455 3.1665 18.2083 3.1665H12.6666C9.16878 3.1665 6.33325 6.00204 6.33325 9.49984V28.4998C6.33325 31.9976 9.16878 34.8332 12.6666 34.8332H25.3333C28.8311 34.8332 31.6666 31.9976 31.6666 28.4998V16.6248C31.6666 16.1876 31.3121 15.8332 30.8749 15.8332H26.9166C22.5443 15.8332 18.9999 12.2888 18.9999 7.9165V3.95817ZM30.4307 12.6665C30.9572 12.6665 31.3355 12.1581 31.0826 11.6964C30.8679 11.3043 30.5971 10.9412 30.2753 10.6194L24.2137 4.55775C23.8919 4.23599 23.5287 3.96516 23.1367 3.75044C22.6749 3.49756 22.1666 3.87591 22.1666 4.40237V7.9165C22.1666 10.5399 24.2932 12.6665 26.9166 12.6665H30.4307ZM18.9999 17.4165C19.8744 17.4165 20.5833 18.1254 20.5833 18.9998V24.6773L22.6303 22.6302C23.2487 22.0119 24.2512 22.0119 24.8695 22.6302C25.4878 23.2486 25.4878 24.2511 24.8695 24.8694L20.1195 29.6194C19.5012 30.2378 18.4987 30.2378 17.8803 29.6194L13.1303 24.8694C12.512 24.2511 12.512 23.2486 13.1303 22.6303C13.7487 22.0119 14.7512 22.0119 15.3695 22.6303L17.4166 24.6773V18.9998C17.4166 18.1254 18.1255 17.4165 18.9999 17.4165Z" fill="white"/>
</svg>
