<svg width="48" height="48" viewBox="0 0 48 48" fill="none" xmlns="http://www.w3.org/2000/svg">
<path d="M8.14006 23.36L8.22006 23.52C8.54006 24.15 9.45006 24.15 9.77006 23.52L9.85006 23.36C10.1801 22.71 10.7101 22.19 11.3601 21.85L11.5201 21.77C12.1501 21.45 12.1501 20.54 11.5201 20.22L11.3601 20.14C10.7101 19.81 10.1901 19.28 9.85006 18.63L9.77006 18.47C9.45006 17.84 8.54006 17.84 8.22006 18.47L8.14006 18.63C7.81006 19.28 7.28006 19.8 6.63006 20.14L6.47006 20.22C5.84006 20.54 5.84006 21.45 6.47006 21.77L6.63006 21.85C7.28006 22.18 7.80006 22.71 8.14006 23.36Z" fill="white"/>
<path d="M9.87006 12.92L10.1701 13.07C11.3601 13.68 12.3201 14.64 12.9301 15.83L13.0801 16.13C13.6701 17.29 15.3301 17.29 15.9201 16.13L16.0701 15.83C16.6801 14.64 17.6401 13.68 18.8301 13.07L19.1301 12.92C20.2901 12.33 20.2901 10.67 19.1301 10.08L18.8301 9.93C17.6401 9.32 16.6801 8.36 16.0701 7.17L15.9201 6.87C15.3301 5.71 13.6701 5.71 13.0801 6.87L12.9301 7.17C12.3201 8.36 11.3601 9.32 10.1701 9.93L9.87006 10.08C8.71006 10.67 8.71006 12.33 9.87006 12.92Z" fill="white"/>
<path d="M38.1301 35.08L37.8301 34.93C36.6401 34.32 35.6801 33.36 35.0701 32.17L34.9201 31.87C34.3301 30.71 32.6701 30.71 32.0801 31.87L31.9301 32.17C31.3201 33.36 30.3601 34.32 29.1701 34.93L28.8701 35.08C27.7101 35.67 27.7101 37.33 28.8701 37.92L29.1701 38.07C30.3601 38.68 31.3201 39.64 31.9301 40.83L32.0801 41.13C32.6701 42.29 34.3301 42.29 34.9201 41.13L35.0701 40.83C35.6801 39.64 36.6401 38.68 37.8301 38.07L38.1301 37.92C39.2901 37.33 39.2901 35.67 38.1301 35.08Z" fill="white"/>
<path d="M39.9101 17.48L38.7901 16.07L39.4301 14.32C40.0401 12.66 39.6401 10.85 38.3901 9.6C37.1401 8.35 35.3301 7.95 33.6701 8.56L31.9201 9.2L30.5101 8.08C29.1101 6.97 27.2501 6.78 25.6601 7.6C24.0701 8.42 23.1401 10.03 23.2201 11.82L23.3001 13.54L21.8301 14.51C20.3501 15.49 19.6001 17.19 19.8701 18.94C19.9601 19.54 20.1701 20.09 20.4701 20.58L7.78006 33.7C6.05006 35.49 6.07006 38.38 7.83006 40.14C8.72006 41.03 9.90006 41.48 11.0801 41.48C12.2601 41.48 13.3901 41.05 14.2701 40.2L27.3901 27.51C27.8801 27.81 28.4301 28.02 29.0301 28.11C29.2701 28.15 29.5001 28.16 29.7301 28.16C31.2201 28.16 32.6101 27.42 33.4601 26.14L34.4301 24.67L36.1501 24.75C37.9401 24.85 39.5501 23.9 40.3701 22.31C41.1901 20.72 41.0001 18.86 39.8901 17.46L39.9101 17.48ZM20.8501 24.52L22.8101 22.49C22.9001 22.52 22.9901 22.56 23.0801 22.59L24.8901 23.11L25.4101 24.92C25.4401 25.01 25.4801 25.1 25.5101 25.19L22.4201 28.18L20.8501 24.53V24.52ZM20.1101 30.4L17.3701 33.05L15.9101 29.63L18.6001 26.85L20.1201 30.4H20.1101ZM12.2001 38.05C11.5801 38.65 10.5701 38.64 9.96006 38.03C9.35006 37.42 9.34006 36.42 9.94006 35.79L13.6301 31.97L15.0501 35.28L12.1901 38.04L12.2001 38.05ZM37.7201 20.96C37.6201 21.16 37.2001 21.81 36.3201 21.77L34.5201 21.68C33.5201 21.63 32.5501 22.12 31.9901 22.96L30.9701 24.5C30.4801 25.24 29.7201 25.19 29.5001 25.15C29.2801 25.12 28.5401 24.94 28.2901 24.09L27.7501 22.21C27.4801 21.25 26.7401 20.52 25.7901 20.25L23.9101 19.71C23.0601 19.47 22.8801 18.73 22.8501 18.5C22.8201 18.27 22.7601 17.52 23.5001 17.03L25.0401 16.01C25.8801 15.46 26.3701 14.49 26.3201 13.48L26.2301 11.68C26.1901 10.79 26.8401 10.38 27.0401 10.28C27.1501 10.22 27.4101 10.11 27.7401 10.11C28.0101 10.11 28.3301 10.19 28.6501 10.44L30.1201 11.61C30.8901 12.22 31.9501 12.4 32.8801 12.06L34.7001 11.39C35.5301 11.09 36.1101 11.58 36.2701 11.74C36.4301 11.9 36.9201 12.48 36.6201 13.31L35.9501 15.13C35.6101 16.06 35.7801 17.12 36.4001 17.89L37.5701 19.36C38.1301 20.06 37.8301 20.77 37.7301 20.97L37.7201 20.96Z" fill="white"/>
</svg>
