<svg width="66" height="66" viewBox="0 0 66 66" fill="none" xmlns="http://www.w3.org/2000/svg">
<path d="M11.1925 32.12L11.3025 32.34C11.7425 33.2063 12.9938 33.2063 13.4338 32.34L13.5438 32.12C13.9975 31.2263 14.7263 30.5113 15.62 30.0438L15.84 29.9338C16.7063 29.4938 16.7063 28.2425 15.84 27.8025L15.62 27.6925C14.7263 27.2387 14.0113 26.51 13.5438 25.6162L13.4338 25.3962C12.9938 24.53 11.7425 24.53 11.3025 25.3962L11.1925 25.6162C10.7388 26.51 10.01 27.225 9.11627 27.6925L8.89627 27.8025C8.03002 28.2425 8.03002 29.4938 8.89627 29.9338L9.11627 30.0438C10.01 30.4975 10.725 31.2263 11.1925 32.12Z" fill="white"/>
<path d="M13.5713 17.765L13.9838 17.9712C15.62 18.81 16.94 20.13 17.7788 21.7662L17.985 22.1787C18.7963 23.7737 21.0788 23.7737 21.89 22.1787L22.0963 21.7662C22.935 20.13 24.255 18.81 25.8913 17.9712L26.3038 17.765C27.8988 16.9538 27.8988 14.6712 26.3038 13.86L25.8913 13.6538C24.255 12.815 22.935 11.495 22.0963 9.85875L21.89 9.44625C21.0788 7.85125 18.7963 7.85125 17.985 9.44625L17.7788 9.85875C16.94 11.495 15.62 12.815 13.9838 13.6538L13.5713 13.86C11.9763 14.6712 11.9763 16.9538 13.5713 17.765Z" fill="white"/>
<path d="M52.4288 48.235L52.0163 48.0287C50.38 47.19 49.06 45.87 48.2213 44.2337L48.015 43.8213C47.2038 42.2263 44.9213 42.2263 44.11 43.8213L43.9038 44.2337C43.065 45.87 41.745 47.19 40.1088 48.0287L39.6963 48.235C38.1013 49.0462 38.1013 51.3287 39.6963 52.14L40.1088 52.3462C41.745 53.185 43.065 54.505 43.9038 56.1413L44.11 56.5538C44.9213 58.1488 47.2038 58.1488 48.015 56.5538L48.2213 56.1413C49.06 54.505 50.38 53.185 52.0163 52.3462L52.4288 52.14C54.0238 51.3287 54.0238 49.0462 52.4288 48.235Z" fill="white"/>
<path d="M54.8763 24.035L53.3363 22.0962L54.2163 19.69C55.055 17.4075 54.505 14.9188 52.7863 13.2C51.0675 11.4813 48.5788 10.9313 46.2963 11.77L43.89 12.65L41.9513 11.11C40.0263 9.58375 37.4688 9.3225 35.2825 10.45C33.0963 11.5775 31.8175 13.7912 31.9275 16.2525L32.0375 18.6175L30.0163 19.9513C27.9813 21.2988 26.95 23.6362 27.3213 26.0425C27.445 26.8675 27.7338 27.6237 28.1463 28.2975L10.6975 46.3375C8.31877 48.7988 8.34627 52.7725 10.7663 55.1925C11.99 56.4162 13.6125 57.035 15.235 57.035C16.8575 57.035 18.4113 56.4438 19.6213 55.275L37.6613 37.8263C38.335 38.2388 39.0913 38.5275 39.9163 38.6513C40.2463 38.7063 40.5625 38.72 40.8788 38.72C42.9275 38.72 44.8388 37.7025 46.0075 35.9425L47.3413 33.9213L49.7063 34.0312C52.1675 34.1688 54.3813 32.8625 55.5088 30.6762C56.6363 28.49 56.375 25.9325 54.8488 24.0075L54.8763 24.035ZM28.6688 33.715L31.3638 30.9237C31.4875 30.965 31.6113 31.02 31.735 31.0613L34.2238 31.7763L34.9388 34.265C34.98 34.3888 35.035 34.5125 35.0763 34.6363L30.8275 38.7475L28.6688 33.7288V33.715ZM27.6513 41.8L23.8838 45.4437L21.8763 40.7412L25.575 36.9188L27.665 41.8H27.6513ZM16.775 52.3187C15.9225 53.1437 14.5338 53.13 13.695 52.2912C12.8563 51.4525 12.8425 50.0775 13.6675 49.2113L18.7413 43.9587L20.6938 48.51L16.7613 52.305L16.775 52.3187ZM51.865 28.82C51.7275 29.095 51.15 29.9887 49.94 29.9337L47.465 29.81C46.09 29.7412 44.7563 30.415 43.9863 31.57L42.5838 33.6875C41.91 34.705 40.865 34.6362 40.5625 34.5812C40.26 34.54 39.2425 34.2925 38.8988 33.1238L38.1563 30.5387C37.785 29.2187 36.7675 28.215 35.4613 27.8437L32.8763 27.1012C31.7075 26.7712 31.46 25.7537 31.4188 25.4375C31.3775 25.1212 31.295 24.09 32.3125 23.4162L34.43 22.0137C35.585 21.2575 36.2588 19.9237 36.19 18.535L36.0663 16.06C36.0113 14.8363 36.905 14.2725 37.18 14.135C37.3313 14.0525 37.6888 13.9012 38.1425 13.9012C38.5138 13.9012 38.9538 14.0112 39.3938 14.355L41.415 15.9637C42.4738 16.8025 43.9313 17.05 45.21 16.5825L47.7125 15.6613C48.8538 15.2488 49.6513 15.9225 49.8713 16.1425C50.0913 16.3625 50.765 17.16 50.3525 18.3013L49.4313 20.8037C48.9638 22.0825 49.1975 23.54 50.05 24.5987L51.6588 26.62C52.4288 27.5825 52.0163 28.5587 51.8788 28.8337L51.865 28.82Z" fill="white"/>
</svg>
