<svg width="35" height="35" viewBox="0 0 35 35" fill="none" xmlns="http://www.w3.org/2000/svg">
<path fill-rule="evenodd" clip-rule="evenodd" d="M23.7604 23.7606C24.3299 23.1911 25.2533 23.1911 25.8228 23.7606L31.6561 29.594C32.2256 30.1635 32.2256 31.0868 31.6561 31.6564C31.0866 32.2259 30.1632 32.2259 29.5937 31.6564L23.7604 25.823C23.1909 25.2535 23.1909 24.3301 23.7604 23.7606Z" fill="white"/>
<path fill-rule="evenodd" clip-rule="evenodd" d="M16.0417 2.9165C8.79301 2.9165 2.91675 8.79277 2.91675 16.0415C2.91675 23.2902 8.79301 29.1665 16.0417 29.1665C23.2905 29.1665 29.1667 23.2902 29.1667 16.0415C29.1667 8.79277 23.2905 2.9165 16.0417 2.9165ZM16.0417 10.2082C16.8472 10.2082 17.5001 10.8611 17.5001 11.6665V14.5832H20.4167C21.2222 14.5832 21.8751 15.2361 21.8751 16.0415C21.8751 16.8469 21.2222 17.4998 20.4167 17.4998H17.5001V20.4165C17.5001 21.2219 16.8472 21.8748 16.0417 21.8748C15.2363 21.8748 14.5834 21.2219 14.5834 20.4165V17.4998H11.6667C10.8613 17.4998 10.2084 16.8469 10.2084 16.0415C10.2084 15.2361 10.8613 14.5832 11.6667 14.5832H14.5834V11.6665C14.5834 10.8611 15.2363 10.2082 16.0417 10.2082Z" fill="white"/>
</svg>
