<svg width="48" height="48" viewBox="0 0 48 48" fill="none" xmlns="http://www.w3.org/2000/svg">
<path d="M18.53 26.84L18.36 26.75C17.67 26.4 17.1 25.83 16.75 25.14L16.66 24.97C16.31 24.29 15.35 24.29 15 24.97L14.91 25.14C14.56 25.83 13.99 26.4 13.3 26.75L13.13 26.84C12.45 27.19 12.45 28.15 13.13 28.5L13.3 28.59C13.99 28.94 14.56 29.51 14.91 30.2L15 30.37C15.35 31.05 16.31 31.05 16.66 30.37L16.75 30.2C17.1 29.51 17.67 28.94 18.36 28.59L18.53 28.5C19.21 28.15 19.21 27.19 18.53 26.84Z" fill="white"/>
<path d="M22.78 22.33L22.94 22.01C23.45 21.01 24.25 20.21 25.25 19.7L25.57 19.54C26.65 18.99 27.32 17.89 27.32 16.68C27.32 15.47 26.65 14.37 25.57 13.81L25.25 13.65C24.25 13.14 23.45 12.34 22.94 11.34L22.78 11.02C22.23 9.94 21.13 9.27 19.92 9.27C18.71 9.27 17.61 9.94 17.05 11.02L16.89 11.34C16.38 12.34 15.58 13.14 14.58 13.65L14.26 13.81C13.18 14.36 12.51 15.46 12.51 16.68C12.51 17.9 13.18 18.99 14.26 19.55L14.58 19.71C15.58 20.22 16.38 21.02 16.89 22.02L17.05 22.34C17.6 23.42 18.7 24.09 19.92 24.09C21.14 24.09 22.23 23.42 22.79 22.34L22.78 22.33ZM20.27 20.65L20.11 20.97C20.11 20.97 20.05 21.09 19.92 21.09C19.79 21.09 19.74 21 19.73 20.97L19.57 20.65C18.77 19.08 17.52 17.83 15.95 17.03L15.63 16.87C15.63 16.87 15.51 16.81 15.51 16.68C15.51 16.55 15.6 16.5 15.63 16.49L15.95 16.33C17.52 15.53 18.77 14.28 19.57 12.71L19.73 12.39C19.73 12.39 19.79 12.27 19.92 12.27C20.05 12.27 20.1 12.35 20.11 12.39L20.27 12.71C21.07 14.28 22.32 15.53 23.89 16.33L24.21 16.49C24.21 16.49 24.33 16.55 24.33 16.68C24.33 16.81 24.24 16.86 24.21 16.87L23.89 17.03C22.32 17.83 21.07 19.08 20.27 20.65Z" fill="white"/>
<path d="M18.53 34.17L18.36 34.08C17.67 33.73 17.1 33.16 16.75 32.47L16.66 32.3C16.31 31.62 15.35 31.62 15 32.3L14.91 32.47C14.56 33.16 13.99 33.73 13.3 34.08L13.13 34.17C12.45 34.52 12.45 35.48 13.13 35.83L13.3 35.92C13.99 36.27 14.56 36.84 14.91 37.53L15 37.7C15.35 38.38 16.31 38.38 16.66 37.7L16.75 37.53C17.1 36.84 17.67 36.27 18.36 35.92L18.53 35.83C19.21 35.48 19.21 34.52 18.53 34.17Z" fill="white"/>
<path d="M33 26.17H22C21.17 26.17 20.5 26.84 20.5 27.67C20.5 28.5 21.17 29.17 22 29.17H33C33.83 29.17 34.5 28.5 34.5 27.67C34.5 26.84 33.83 26.17 33 26.17Z" fill="white"/>
<path d="M33 33.5H22C21.17 33.5 20.5 34.17 20.5 35C20.5 35.83 21.17 36.5 22 36.5H33C33.83 36.5 34.5 35.83 34.5 35C34.5 34.17 33.83 33.5 33 33.5Z" fill="white"/>
<path d="M33 18.83H30C29.17 18.83 28.5 19.5 28.5 20.33C28.5 21.16 29.17 21.83 30 21.83H33C33.83 21.83 34.5 21.16 34.5 20.33C34.5 19.5 33.83 18.83 33 18.83Z" fill="white"/>
<path d="M33 11.5H30C29.17 11.5 28.5 12.17 28.5 13C28.5 13.83 29.17 14.5 30 14.5H33C33.83 14.5 34.5 13.83 34.5 13C34.5 12.17 33.83 11.5 33 11.5Z" fill="white"/>
<path d="M31 4.5H17C10.66 4.5 5.5 9.66 5.5 16V32C5.5 38.34 10.66 43.5 17 43.5H31C37.34 43.5 42.5 38.34 42.5 32V16C42.5 9.66 37.34 4.5 31 4.5ZM39.5 32C39.5 36.69 35.69 40.5 31 40.5H17C12.31 40.5 8.5 36.69 8.5 32V16C8.5 11.31 12.31 7.5 17 7.5H31C35.69 7.5 39.5 11.31 39.5 16V32Z" fill="white"/>
</svg>
