<svg width="40" height="40" viewBox="0 0 40 40" fill="none" xmlns="http://www.w3.org/2000/svg">
<path d="M15.4416 22.3667L15.2999 22.2917C14.7249 22 14.2499 21.525 13.9583 20.95L13.8833 20.8083C13.5916 20.2417 12.7916 20.2417 12.4999 20.8083L12.4249 20.95C12.1333 21.525 11.6583 22 11.0833 22.2917L10.9416 22.3667C10.3749 22.6583 10.3749 23.4583 10.9416 23.75L11.0833 23.825C11.6583 24.1167 12.1333 24.5917 12.4249 25.1667L12.4999 25.3083C12.7916 25.875 13.5916 25.875 13.8833 25.3083L13.9583 25.1667C14.2499 24.5917 14.7249 24.1167 15.2999 23.825L15.4416 23.75C16.0083 23.4583 16.0083 22.6583 15.4416 22.3667Z" fill="white"/>
<path d="M18.9833 18.6083L19.1166 18.3417C19.5416 17.5083 20.2083 16.8417 21.0416 16.4167L21.3083 16.2833C22.2083 15.825 22.7666 14.9083 22.7666 13.9C22.7666 12.8917 22.2083 11.975 21.3083 11.5083L21.0416 11.375C20.2083 10.95 19.5416 10.2833 19.1166 9.45L18.9833 9.18333C18.5249 8.28333 17.6083 7.725 16.5999 7.725C15.5916 7.725 14.6749 8.28333 14.2083 9.18333L14.0749 9.45C13.6499 10.2833 12.9833 10.95 12.1499 11.375L11.8833 11.5083C10.9833 11.9667 10.4249 12.8833 10.4249 13.9C10.4249 14.9167 10.9833 15.825 11.8833 16.2917L12.1499 16.425C12.9833 16.85 13.6499 17.5167 14.0749 18.35L14.2083 18.6167C14.6666 19.5167 15.5833 20.075 16.5999 20.075C17.6166 20.075 18.5249 19.5167 18.9916 18.6167L18.9833 18.6083ZM16.8916 17.2083L16.7583 17.475C16.7583 17.475 16.7083 17.575 16.5999 17.575C16.4916 17.575 16.4499 17.5 16.4416 17.475L16.3083 17.2083C15.6416 15.9 14.5999 14.8583 13.2916 14.1917L13.0249 14.0583C13.0249 14.0583 12.9249 14.0083 12.9249 13.9C12.9249 13.7917 12.9999 13.75 13.0249 13.7417L13.2916 13.6083C14.5999 12.9417 15.6416 11.9 16.3083 10.5917L16.4416 10.325C16.4416 10.325 16.4916 10.225 16.5999 10.225C16.7083 10.225 16.7499 10.2917 16.7583 10.325L16.8916 10.5917C17.5583 11.9 18.5999 12.9417 19.9083 13.6083L20.1749 13.7417C20.1749 13.7417 20.2749 13.7917 20.2749 13.9C20.2749 14.0083 20.1999 14.05 20.1749 14.0583L19.9083 14.1917C18.5999 14.8583 17.5583 15.9 16.8916 17.2083Z" fill="white"/>
<path d="M15.4416 28.475L15.2999 28.4C14.7249 28.1083 14.2499 27.6333 13.9583 27.0583L13.8833 26.9167C13.5916 26.35 12.7916 26.35 12.4999 26.9167L12.4249 27.0583C12.1333 27.6333 11.6583 28.1083 11.0833 28.4L10.9416 28.475C10.3749 28.7667 10.3749 29.5667 10.9416 29.8583L11.0833 29.9333C11.6583 30.225 12.1333 30.7 12.4249 31.275L12.4999 31.4167C12.7916 31.9833 13.5916 31.9833 13.8833 31.4167L13.9583 31.275C14.2499 30.7 14.7249 30.225 15.2999 29.9333L15.4416 29.8583C16.0083 29.5667 16.0083 28.7667 15.4416 28.475Z" fill="white"/>
<path d="M27.4999 21.8083H18.3333C17.6416 21.8083 17.0833 22.3667 17.0833 23.0583C17.0833 23.75 17.6416 24.3083 18.3333 24.3083H27.4999C28.1916 24.3083 28.7499 23.75 28.7499 23.0583C28.7499 22.3667 28.1916 21.8083 27.4999 21.8083Z" fill="white"/>
<path d="M27.4999 27.9167H18.3333C17.6416 27.9167 17.0833 28.475 17.0833 29.1667C17.0833 29.8583 17.6416 30.4167 18.3333 30.4167H27.4999C28.1916 30.4167 28.7499 29.8583 28.7499 29.1667C28.7499 28.475 28.1916 27.9167 27.4999 27.9167Z" fill="white"/>
<path d="M27.4999 15.6917H24.9999C24.3083 15.6917 23.7499 16.25 23.7499 16.9417C23.7499 17.6333 24.3083 18.1917 24.9999 18.1917H27.4999C28.1916 18.1917 28.7499 17.6333 28.7499 16.9417C28.7499 16.25 28.1916 15.6917 27.4999 15.6917Z" fill="white"/>
<path d="M27.4999 9.58333H24.9999C24.3083 9.58333 23.7499 10.1417 23.7499 10.8333C23.7499 11.525 24.3083 12.0833 24.9999 12.0833H27.4999C28.1916 12.0833 28.7499 11.525 28.7499 10.8333C28.7499 10.1417 28.1916 9.58333 27.4999 9.58333Z" fill="white"/>
<path d="M25.8333 3.75H14.1666C8.88325 3.75 4.58325 8.05 4.58325 13.3333V26.6667C4.58325 31.95 8.88325 36.25 14.1666 36.25H25.8333C31.1166 36.25 35.4166 31.95 35.4166 26.6667V13.3333C35.4166 8.05 31.1166 3.75 25.8333 3.75ZM32.9166 26.6667C32.9166 30.575 29.7416 33.75 25.8333 33.75H14.1666C10.2583 33.75 7.08325 30.575 7.08325 26.6667V13.3333C7.08325 9.425 10.2583 6.25 14.1666 6.25H25.8333C29.7416 6.25 32.9166 9.425 32.9166 13.3333V26.6667Z" fill="white"/>
</svg>
