<svg width="66" height="66" viewBox="0 0 66 66" fill="none" xmlns="http://www.w3.org/2000/svg">
<path d="M25.4788 36.905L25.245 36.7812C24.2963 36.3 23.5125 35.5162 23.0312 34.5675L22.9075 34.3337C22.4262 33.3987 21.1062 33.3987 20.625 34.3337L20.5012 34.5675C20.02 35.5162 19.2363 36.3 18.2875 36.7812L18.0538 36.905C17.1188 37.3863 17.1188 38.7063 18.0538 39.1875L18.2875 39.3113C19.2363 39.7925 20.02 40.5763 20.5012 41.525L20.625 41.7588C21.1062 42.6938 22.4262 42.6938 22.9075 41.7588L23.0312 41.525C23.5125 40.5763 24.2963 39.7925 25.245 39.3113L25.4788 39.1875C26.4138 38.7063 26.4138 37.3863 25.4788 36.905Z" fill="white"/>
<path d="M31.3225 30.7037L31.5425 30.2638C32.2438 28.8888 33.3438 27.7888 34.7188 27.0875L35.1587 26.8675C36.6437 26.1113 37.565 24.5988 37.565 22.935C37.565 21.2713 36.6437 19.7588 35.1587 18.9888L34.7188 18.7687C33.3438 18.0675 32.2438 16.9675 31.5425 15.5925L31.3225 15.1525C30.5663 13.6675 29.0538 12.7463 27.39 12.7463C25.7263 12.7463 24.2137 13.6675 23.4437 15.1525L23.2237 15.5925C22.5225 16.9675 21.4225 18.0675 20.0475 18.7687L19.6075 18.9888C18.1225 19.745 17.2013 21.2575 17.2013 22.935C17.2013 24.6125 18.1225 26.1112 19.6075 26.8812L20.0475 27.1012C21.4225 27.8025 22.5225 28.9025 23.2237 30.2775L23.4437 30.7175C24.2 32.2025 25.7125 33.1238 27.39 33.1238C29.0675 33.1238 30.5663 32.2025 31.3363 30.7175L31.3225 30.7037ZM27.8713 28.3937L27.6513 28.8337C27.6513 28.8337 27.5688 28.9988 27.39 28.9988C27.2113 28.9988 27.1425 28.875 27.1287 28.8337L26.9087 28.3937C25.8087 26.235 24.09 24.5163 21.9312 23.4163L21.4913 23.1963C21.4913 23.1963 21.3263 23.1138 21.3263 22.935C21.3263 22.7563 21.45 22.6875 21.4913 22.6737L21.9312 22.4537C24.09 21.3537 25.8087 19.635 26.9087 17.4763L27.1287 17.0363C27.1287 17.0363 27.2113 16.8713 27.39 16.8713C27.5688 16.8713 27.6375 16.9813 27.6513 17.0363L27.8713 17.4763C28.9713 19.635 30.69 21.3537 32.8487 22.4537L33.2887 22.6737C33.2887 22.6737 33.4537 22.7563 33.4537 22.935C33.4537 23.1138 33.33 23.1825 33.2887 23.1963L32.8487 23.4163C30.69 24.5163 28.9713 26.235 27.8713 28.3937Z" fill="white"/>
<path d="M25.4788 46.9837L25.245 46.86C24.2963 46.3788 23.5125 45.595 23.0312 44.6463L22.9075 44.4125C22.4262 43.4775 21.1062 43.4775 20.625 44.4125L20.5012 44.6463C20.02 45.595 19.2363 46.3788 18.2875 46.86L18.0538 46.9837C17.1188 47.465 17.1188 48.785 18.0538 49.2663L18.2875 49.39C19.2363 49.8712 20.02 50.655 20.5012 51.6037L20.625 51.8375C21.1062 52.7725 22.4262 52.7725 22.9075 51.8375L23.0312 51.6037C23.5125 50.655 24.2963 49.8712 25.245 49.39L25.4788 49.2663C26.4138 48.785 26.4138 47.465 25.4788 46.9837Z" fill="white"/>
<path d="M45.375 35.9838H30.25C29.1088 35.9838 28.1875 36.905 28.1875 38.0463C28.1875 39.1875 29.1088 40.1088 30.25 40.1088H45.375C46.5162 40.1088 47.4375 39.1875 47.4375 38.0463C47.4375 36.905 46.5162 35.9838 45.375 35.9838Z" fill="white"/>
<path d="M45.375 46.0625H30.25C29.1088 46.0625 28.1875 46.9838 28.1875 48.125C28.1875 49.2662 29.1088 50.1875 30.25 50.1875H45.375C46.5162 50.1875 47.4375 49.2662 47.4375 48.125C47.4375 46.9838 46.5162 46.0625 45.375 46.0625Z" fill="white"/>
<path d="M45.375 25.8912H41.25C40.1088 25.8912 39.1875 26.8125 39.1875 27.9537C39.1875 29.095 40.1088 30.0162 41.25 30.0162H45.375C46.5162 30.0162 47.4375 29.095 47.4375 27.9537C47.4375 26.8125 46.5162 25.8912 45.375 25.8912Z" fill="white"/>
<path d="M45.375 15.8125H41.25C40.1088 15.8125 39.1875 16.7338 39.1875 17.875C39.1875 19.0162 40.1088 19.9375 41.25 19.9375H45.375C46.5162 19.9375 47.4375 19.0162 47.4375 17.875C47.4375 16.7338 46.5162 15.8125 45.375 15.8125Z" fill="white"/>
<path d="M42.625 6.1875H23.375C14.6575 6.1875 7.5625 13.2825 7.5625 22V44C7.5625 52.7175 14.6575 59.8125 23.375 59.8125H42.625C51.3425 59.8125 58.4375 52.7175 58.4375 44V22C58.4375 13.2825 51.3425 6.1875 42.625 6.1875ZM54.3125 44C54.3125 50.4488 49.0738 55.6875 42.625 55.6875H23.375C16.9262 55.6875 11.6875 50.4488 11.6875 44V22C11.6875 15.5512 16.9262 10.3125 23.375 10.3125H42.625C49.0738 10.3125 54.3125 15.5512 54.3125 22V44Z" fill="white"/>
</svg>
